# xmcd
# 
# Track frame offsets:
#     150
#     22035
#     46358
#     73475
#     100995
#     134365
#     166848
# 
# Disc length: 2492
# 
# Revision: 0
# Processed by: cddbd v1.5.2PL0 Copyright (c) Steve Scherf et al.
# Submitted via: BonkEnc v1.0.8
# 
DISCID=6209ba07
DTITLE=益田幹夫 - Moon Stone
DYEAR=1977
DGENRE=Fusion
TTITLE0=Mickey's Samba
TTITLE1=Funky Wave
TTITLE2=Moon Stone
TTITLE3=Space Coaster
TTITLE4=Let's Get Together
TTITLE5=Vibration #1
TTITLE6=Keep On Loving
EXTD=
EXTT0=
EXTT1=
EXTT2=
EXTT3=
EXTT4=
EXTT5=
EXTT6=
PLAYORDER=
